<svg width="30" height="30" viewBox="0 0 30 30" fill="none" xmlns="http://www.w3.org/2000/svg">
<g clip-path="url(#clip0_134_720)">
<path d="M14.4274 0.861946C12.1346 0.889624 7.20509 1.26641 4.44795 3.79587C2.39706 5.82801 1.68099 8.83247 1.59706 12.5476C1.52742 16.2494 1.44349 23.2012 8.14438 25.0941V27.9771C8.14438 27.9771 8.10242 29.1307 8.86491 29.3673C9.8042 29.6646 10.339 28.7771 11.2319 27.8235L12.8971 25.9405C17.4819 26.3217 20.9935 25.4432 21.3979 25.3128C22.3283 25.0155 27.5685 24.3458 28.4247 17.3932C29.3033 10.2128 27.997 5.68873 25.639 3.6423H25.6247C24.9131 2.98694 22.0533 0.903017 15.664 0.879803C15.664 0.879803 15.1899 0.84766 14.4274 0.861053V0.861946ZM14.506 2.88069C15.1569 2.87623 15.5524 2.90391 15.5524 2.90391C20.9604 2.91819 23.5417 4.54587 24.1506 5.09408C26.1363 6.79587 27.1595 10.8744 26.4104 16.8691C25.6988 22.6816 21.4488 23.0494 20.6622 23.3003C20.3274 23.4075 17.2345 24.17 13.3381 23.9191C13.3381 23.9191 10.4363 27.4208 9.5292 28.3226C9.38545 28.4807 9.21759 28.5271 9.11045 28.5039C8.95688 28.4664 8.91045 28.2762 8.91938 28.0155L8.94706 23.2307C3.26403 21.6592 3.59885 15.7298 3.65956 12.6325C3.72921 9.53515 4.31045 7.00122 6.04081 5.28515C8.37027 3.17891 12.556 2.89498 14.5042 2.88069H14.506ZM14.9346 5.97712C14.8878 5.97665 14.8414 5.98544 14.798 6.00298C14.7547 6.02053 14.7152 6.04649 14.6819 6.07935C14.6486 6.11222 14.6222 6.15135 14.6041 6.19449C14.586 6.23762 14.5766 6.28391 14.5765 6.33069C14.5765 6.53069 14.739 6.68872 14.9346 6.68872C15.8198 6.67189 16.6997 6.83048 17.5233 7.15535C18.347 7.48023 19.0982 7.96496 19.7337 8.58158C21.031 9.8414 21.6631 11.5343 21.6872 13.7476C21.6872 13.9432 21.8453 14.1057 22.0453 14.1057V14.0914C22.1395 14.0916 22.23 14.0546 22.2971 13.9884C22.3642 13.9221 22.4023 13.8321 22.4033 13.7378C22.4466 12.696 22.2777 11.6562 21.9067 10.6817C21.5357 9.70722 20.9705 8.81833 20.2453 8.06908C18.8319 6.68783 17.0408 5.97623 14.9346 5.97623V5.97712ZM10.2283 6.79587C9.97558 6.75894 9.71783 6.80967 9.49795 6.93962H9.4792C8.96872 7.23885 8.50886 7.61705 8.1167 8.06015C7.79081 8.43694 7.61402 8.81819 7.56759 9.18515C7.53992 9.4039 7.55867 9.62265 7.62384 9.83158L7.64706 9.84587C8.01402 10.9244 8.49349 11.9619 9.0792 12.9387C9.83368 14.311 10.7622 15.5801 11.8417 16.7146L11.8738 16.761L11.9247 16.7985L11.9569 16.836L11.9944 16.8682C13.133 17.9508 14.4052 18.8837 15.7801 19.6441C17.3515 20.4994 18.3051 20.9039 18.8774 21.0717V21.0807C19.0453 21.1316 19.1979 21.1548 19.3515 21.1548C19.8393 21.119 20.301 20.921 20.6631 20.5923C21.1042 20.2 21.4782 19.7383 21.7703 19.2253V19.2164C22.0444 18.7003 21.9515 18.2119 21.556 17.8816C20.7638 17.1892 19.9073 16.5742 18.9979 16.045C18.389 15.7146 17.7703 15.9146 17.5194 16.2494L16.9845 16.9235C16.7104 17.2584 16.2122 17.2119 16.2122 17.2119L16.1979 17.2209C12.4828 16.2718 11.4917 12.5101 11.4917 12.5101C11.4917 12.5101 11.4453 11.9985 11.789 11.7378L12.4587 11.1985C12.7792 10.9378 13.0024 10.32 12.6587 9.71015C12.1331 8.79957 11.5195 7.94279 10.8265 7.15212C10.675 6.96572 10.4625 6.83889 10.2265 6.79408L10.2283 6.79587ZM15.5524 7.85658C15.0783 7.85658 15.0783 8.57265 15.5569 8.57265C16.1464 8.58221 16.7283 8.70786 17.2692 8.94241C17.8102 9.17696 18.2996 9.51582 18.7095 9.93961C19.0835 10.3521 19.3709 10.8355 19.5546 11.3611C19.7383 11.8867 19.8147 12.4438 19.7792 12.9994C19.7808 13.0935 19.8192 13.1831 19.8861 13.2492C19.953 13.3153 20.0432 13.3526 20.1372 13.353L20.1515 13.3718C20.2462 13.3711 20.3369 13.3331 20.4039 13.2661C20.4709 13.1991 20.5088 13.1085 20.5095 13.0137C20.5417 11.595 20.1006 10.4048 19.2354 9.45122C18.3658 8.49765 17.1524 7.96283 15.6033 7.85658H15.5524ZM16.139 9.78158C15.6506 9.76729 15.6319 10.4976 16.1158 10.5119C17.2926 10.5726 17.864 11.1673 17.939 12.3905C17.9406 12.4834 17.9786 12.5719 18.0446 12.6371C18.1107 12.7024 18.1997 12.7392 18.2926 12.7396H18.3069C18.3546 12.7376 18.4015 12.726 18.4447 12.7057C18.4879 12.6853 18.5267 12.6566 18.5587 12.6211C18.5907 12.5856 18.6153 12.5441 18.6311 12.499C18.6469 12.4539 18.6535 12.4061 18.6506 12.3584C18.5667 10.7637 17.697 9.86551 16.1533 9.78247H16.139V9.78158Z" fill="white"/>
</g>
<defs>
<clipPath id="clip0_134_720">
<rect width="28.5714" height="28.5714" fill="white" transform="translate(0.857422 0.857422)"/>
</clipPath>
</defs>
</svg>
