<svg width="28" height="29" viewBox="0 0 28 29" fill="none" xmlns="http://www.w3.org/2000/svg">
<path fill-rule="evenodd" clip-rule="evenodd" d="M23.4742 4.2957C22.2222 2.97546 20.7326 1.92861 19.0917 1.2158C17.4507 0.502985 15.6911 0.138382 13.9147 0.143112C6.46589 0.143112 0.40205 6.49423 0.39904 14.301C0.39904 16.7961 1.02078 19.2312 2.20254 21.3792L0.286133 28.7145L7.45044 26.7446C9.43217 27.8748 11.6524 28.4674 13.9087 28.4684H13.9147C21.3621 28.4684 27.4259 22.1173 27.4289 14.3105C27.434 12.4502 27.0872 10.6074 26.4083 8.88841C25.7295 7.16944 24.7323 5.60847 23.4742 4.2957ZM13.9147 26.0791H13.9102C11.8982 26.0793 9.9233 25.5122 8.19261 24.4373L7.78314 24.1818L3.53182 25.3504L4.66541 21.0086L4.39895 20.5638C3.27408 18.6877 2.6786 16.5166 2.68126 14.301C2.68427 7.81271 7.72292 2.53405 13.9192 2.53405C15.3949 2.53061 16.8566 2.83383 18.2197 3.42615C19.5828 4.01848 20.8202 4.88814 21.8603 5.98482C22.906 7.07626 23.7349 8.37401 24.299 9.80305C24.863 11.2321 25.1512 12.7641 25.1467 14.3105C25.1437 20.7988 20.105 26.0791 13.9147 26.0791ZM20.0764 17.2645C19.7377 17.0863 18.0787 16.2315 17.7686 16.1132C17.46 15.9949 17.2357 15.9365 17.0099 16.2898C16.7841 16.6431 16.1367 17.4395 15.9395 17.6761C15.7423 17.9127 15.5451 17.9411 15.2079 17.7644C14.8707 17.5878 13.7822 17.214 12.4921 16.0091C11.488 15.0707 10.8105 13.9131 10.6133 13.5582C10.4161 13.2034 10.5923 13.0125 10.7624 12.8359C10.9144 12.6782 11.0996 12.4227 11.2682 12.2161C11.4368 12.0095 11.4925 11.8628 11.6054 11.6262C11.7183 11.3897 11.6626 11.183 11.5768 11.0064C11.4925 10.8282 10.8166 9.08704 10.5351 8.3789C10.2626 7.69285 9.98407 7.78432 9.77632 7.77486C9.56116 7.76564 9.34583 7.76143 9.13049 7.76224C8.95926 7.76682 8.79077 7.8084 8.6356 7.88439C8.48043 7.96038 8.34191 8.06914 8.22874 8.20384C7.91863 8.5587 7.04699 9.4135 7.04699 11.1547C7.04699 12.8958 8.25735 14.5786 8.42595 14.8152C8.59456 15.0518 10.8075 18.624 14.1947 20.1569C15.0016 20.5213 15.6309 20.7389 16.1202 20.9029C16.9286 21.1726 17.6647 21.1332 18.2473 21.0433C18.8962 20.9424 20.245 20.1885 20.5265 19.3621C20.8081 18.5356 20.8081 17.8275 20.7238 17.6793C20.6394 17.531 20.4121 17.4411 20.0764 17.2645Z" fill="white"/>
</svg>
