<svg width="52" height="52" viewBox="0 0 52 52" fill="none" xmlns="http://www.w3.org/2000/svg">
<rect width="52" height="52" rx="12" fill="#90C1BF"/>
<path d="M24.9975 7.00631C21.7875 7.04506 14.8863 7.57256 11.0263 11.1138C8.15501 13.9588 7.15251 18.1651 7.03501 23.3663C6.93751 28.5488 6.82001 38.2813 16.2013 40.9313V44.9676C16.2013 44.9676 16.1425 46.5826 17.21 46.9138C18.525 47.3301 19.2738 46.0876 20.5238 44.7526L22.855 42.1163C29.2738 42.6501 34.19 41.4201 34.7563 41.2376C36.0588 40.8213 43.395 39.8838 44.5938 30.1501C45.8238 20.0976 43.995 13.7638 40.6938 10.8988H40.6738C39.6775 9.98131 35.6738 7.06381 26.7288 7.03131C26.7288 7.03131 26.065 6.98631 24.9975 7.00506V7.00631ZM25.1075 9.83256C26.0188 9.82631 26.5725 9.86506 26.5725 9.86506C34.1438 9.88506 37.7575 12.1638 38.61 12.9313C41.39 15.3138 42.8225 21.0238 41.7738 29.4163C40.7775 37.5538 34.8275 38.0688 33.7263 38.4201C33.2575 38.5701 28.9275 39.6376 23.4725 39.2863C23.4725 39.2863 19.41 44.1888 18.14 45.4513C17.9388 45.6726 17.7038 45.7376 17.5538 45.7051C17.3388 45.6526 17.2738 45.3863 17.2863 45.0213L17.325 38.3226C9.36876 36.1226 9.83751 27.8213 9.92251 23.4851C10.02 19.1488 10.8338 15.6013 13.2563 13.1988C16.5175 10.2501 22.3775 9.85256 25.105 9.83256H25.1075ZM25.7075 14.1676C25.642 14.1669 25.5771 14.1792 25.5164 14.2038C25.4557 14.2283 25.4004 14.2647 25.3538 14.3107C25.3072 14.3567 25.2702 14.4115 25.2449 14.4719C25.2195 14.5323 25.2064 14.5971 25.2063 14.6626C25.2063 14.9426 25.4338 15.1638 25.7075 15.1638C26.9469 15.1402 28.1787 15.3623 29.3318 15.8171C30.485 16.2719 31.5367 16.9505 32.4263 17.8138C34.2425 19.5776 35.1275 21.9476 35.1613 25.0463C35.1613 25.3201 35.3825 25.5476 35.6625 25.5476V25.5276C35.7945 25.5279 35.9212 25.476 36.0151 25.3833C36.109 25.2906 36.1624 25.1645 36.1638 25.0326C36.2245 23.574 35.9879 22.1183 35.4685 20.754C34.9492 19.3897 34.1578 18.1453 33.1425 17.0963C31.1638 15.1626 28.6563 14.1663 25.7075 14.1663V14.1676ZM19.1188 15.3138C18.7649 15.2621 18.4041 15.3331 18.0963 15.5151H18.07C17.3553 15.934 16.7115 16.4635 16.1625 17.0838C15.7063 17.6113 15.4588 18.1451 15.3938 18.6588C15.355 18.9651 15.3813 19.2713 15.4725 19.5638L15.505 19.5838C16.0188 21.0938 16.69 22.5463 17.51 23.9138C18.5663 25.835 19.8662 27.6118 21.3775 29.2001L21.4225 29.2651L21.4938 29.3176L21.5388 29.3701L21.5913 29.4151C23.1853 30.9308 24.9664 32.2368 26.8913 33.3013C29.0913 34.4988 30.4263 35.0651 31.2275 35.3001V35.3126C31.4625 35.3838 31.6763 35.4163 31.8913 35.4163C32.5741 35.3663 33.2206 35.089 33.7275 34.6288C34.345 34.0797 34.8686 33.4332 35.2775 32.7151V32.7026C35.6613 31.9801 35.5313 31.2963 34.9775 30.8338C33.8685 29.8644 32.6693 29.0034 31.3963 28.2626C30.5438 27.8001 29.6775 28.0801 29.3263 28.5488L28.5775 29.4926C28.1938 29.9613 27.4963 29.8963 27.4963 29.8963L27.4763 29.9088C22.275 28.5801 20.8875 23.3138 20.8875 23.3138C20.8875 23.3138 20.8225 22.5976 21.3038 22.2326L22.2413 21.4776C22.69 21.1126 23.0025 20.2476 22.5213 19.3938C21.7855 18.119 20.9264 16.9195 19.9563 15.8126C19.7442 15.5516 19.4466 15.374 19.1163 15.3113L19.1188 15.3138ZM26.5725 16.7988C25.9088 16.7988 25.9088 17.8013 26.5788 17.8013C27.4041 17.8147 28.2187 17.9906 28.9761 18.319C29.7334 18.6473 30.4186 19.1217 30.9925 19.7151C31.516 20.2926 31.9183 20.9693 32.1756 21.7051C32.4328 22.4409 32.5397 23.2209 32.49 23.9988C32.4923 24.1305 32.546 24.256 32.6397 24.3485C32.7334 24.441 32.8596 24.4932 32.9913 24.4938L33.0113 24.5201C33.1439 24.5191 33.2708 24.466 33.3646 24.3722C33.4584 24.2784 33.5115 24.1514 33.5125 24.0188C33.5575 22.0326 32.94 20.3663 31.7288 19.0313C30.5113 17.6963 28.8125 16.9476 26.6438 16.7988H26.5725ZM27.3938 19.4938C26.71 19.4738 26.6838 20.4963 27.3613 20.5163C29.0088 20.6013 29.8088 21.4338 29.9138 23.1463C29.916 23.2763 29.9691 23.4002 30.0616 23.4916C30.1542 23.5829 30.2788 23.6344 30.4088 23.6351H30.4288C30.4956 23.6322 30.5612 23.616 30.6217 23.5875C30.6823 23.5591 30.7365 23.5188 30.7813 23.4691C30.8261 23.4194 30.8606 23.3613 30.8827 23.2982C30.9048 23.235 30.9141 23.1681 30.91 23.1013C30.7925 20.8688 29.575 19.6113 27.4138 19.4951H27.3938V19.4938Z" fill="white"/>
</svg>
