<svg width="29" height="29" viewBox="0 0 29 29" fill="none" xmlns="http://www.w3.org/2000/svg">
<path d="M14.5718 7.57163C13.2156 7.57163 11.8899 7.97379 10.7622 8.72727C9.63456 9.48074 8.75567 10.5517 8.23667 11.8047C7.71766 13.0576 7.58187 14.4364 7.84646 15.7665C8.11104 17.0967 8.76412 18.3185 9.72311 19.2775C10.6821 20.2365 11.9039 20.8896 13.2341 21.1541C14.5642 21.4187 15.943 21.2829 17.1959 20.7639C18.4489 20.2449 19.5199 19.366 20.2733 18.2384C21.0268 17.1107 21.429 15.785 21.429 14.4288C21.4269 12.6108 20.7038 10.8678 19.4183 9.58229C18.1328 8.29677 16.3898 7.57367 14.5718 7.57163ZM14.5718 19.0002C13.6677 19.0002 12.7839 18.7321 12.0321 18.2298C11.2803 17.7275 10.6944 17.0135 10.3484 16.1782C10.0024 15.3429 9.91186 14.4237 10.0882 13.5369C10.2646 12.6502 10.7 11.8356 11.3393 11.1963C11.9787 10.557 12.7932 10.1216 13.68 9.94518C14.5668 9.76879 15.4859 9.85932 16.3212 10.2053C17.1566 10.5513 17.8705 11.1373 18.3728 11.889C18.8751 12.6408 19.1433 13.5246 19.1433 14.4288C19.1419 15.6408 18.6598 16.8027 17.8028 17.6597C16.9458 18.5168 15.7838 18.9988 14.5718 19.0002ZM20.8575 0.143066H8.28612C6.16514 0.145486 4.13171 0.989117 2.63195 2.48888C1.13218 3.98865 0.288553 6.02207 0.286133 8.14306V20.7145C0.288553 22.8355 1.13218 24.8689 2.63195 26.3686C4.13171 27.8684 6.16514 28.712 8.28612 28.7145H20.8575C22.9785 28.712 25.0119 27.8684 26.5117 26.3686C28.0115 24.8689 28.8551 22.8355 28.8575 20.7145V8.14306C28.8551 6.02207 28.0115 3.98865 26.5117 2.48888C25.0119 0.989117 22.9785 0.145486 20.8575 0.143066ZM26.5718 20.7145C26.5701 22.2295 25.9675 23.6819 24.8963 24.7532C23.825 25.8245 22.3725 26.4271 20.8575 26.4288H8.28612C6.77113 26.4271 5.31866 25.8245 4.2474 24.7532C3.17613 23.6819 2.57355 22.2295 2.57184 20.7145V8.14306C2.57355 6.62806 3.17613 5.1756 4.2474 4.10433C5.31866 3.03306 6.77113 2.43048 8.28612 2.42878H20.8575C22.3725 2.43048 23.825 3.03306 24.8963 4.10433C25.9675 5.1756 26.5701 6.62806 26.5718 8.14306V20.7145ZM23.7147 7.0002C23.7147 7.33926 23.6141 7.67069 23.4258 7.95261C23.2374 8.23452 22.9697 8.45424 22.6564 8.58399C22.3432 8.71374 21.9985 8.74769 21.666 8.68155C21.3334 8.6154 21.028 8.45213 20.7882 8.21238C20.5485 7.97264 20.3852 7.66718 20.3191 7.33464C20.2529 7.0021 20.2869 6.65742 20.4166 6.34417C20.5464 6.03093 20.7661 5.76319 21.048 5.57483C21.3299 5.38646 21.6613 5.28592 22.0004 5.28592C22.4551 5.28592 22.8911 5.46653 23.2126 5.78802C23.5341 6.10951 23.7147 6.54555 23.7147 7.0002Z" fill="white"/>
</svg>
